<?xml version="1.0" encoding="UTF-8"?>
<svg xmlns="http://www.w3.org/2000/svg" xmlns:xlink="http://www.w3.org/1999/xlink" width="50px" height="50px" viewBox="0 0 50 50" version="1.1">
<g id="surface1">
<path style=" stroke:none;fill-rule:nonzero;fill:rgb(96.862745%,62.352941%,29.411765%);fill-opacity:1;" d="M 22.410156 24.414062 L 27.589844 24.414062 L 27.589844 48.066406 L 22.410156 48.066406 Z M 22.410156 24.414062 "/>
<path style=" stroke:none;fill-rule:nonzero;fill:rgb(79.215686%,52.156863%,25.098039%);fill-opacity:1;" d="M 22.410156 24.414062 L 25 24.414062 L 25 48.066406 L 22.410156 48.066406 Z M 22.410156 24.414062 "/>
<path style=" stroke:none;fill-rule:nonzero;fill:rgb(55.294118%,70.588235%,30.588235%);fill-opacity:1;" d="M 38.363281 13.363281 C 38.363281 20.746094 32.382812 26.730469 25 26.730469 C 17.617188 26.730469 11.636719 20.746094 11.636719 13.363281 C 11.636719 5.984375 17.617188 0 25 0 C 32.382812 0 38.363281 5.984375 38.363281 13.363281 Z M 38.363281 13.363281 "/>
<path style=" stroke:none;fill-rule:nonzero;fill:rgb(49.019608%,62.745098%,27.058824%);fill-opacity:1;" d="M 25 26.730469 C 17.617188 26.730469 11.636719 20.746094 11.636719 13.363281 C 11.636719 5.984375 17.617188 0 25 0 Z M 25 26.730469 "/>
<path style=" stroke:none;fill-rule:nonzero;fill:rgb(21.960784%,49.803922%,61.960784%);fill-opacity:1;" d="M 30.382812 50 L 19.617188 50 C 18.550781 50 17.6875 49.136719 17.6875 48.066406 C 17.6875 47 18.550781 46.136719 19.617188 46.136719 L 30.382812 46.136719 C 31.449219 46.136719 32.3125 47 32.3125 48.066406 C 32.3125 49.136719 31.449219 50 30.382812 50 Z M 30.382812 50 "/>
<path style=" stroke:none;fill-rule:nonzero;fill:rgb(16.078431%,33.333333%,43.137255%);fill-opacity:1;" d="M 24.933594 50 L 19.617188 50 C 18.550781 50 17.6875 49.136719 17.6875 48.066406 C 17.6875 47 18.550781 46.136719 19.617188 46.136719 L 24.933594 46.136719 Z M 24.933594 50 "/>
</g>
</svg>
